PathFileType	4	(X/Y/Z)	CPRIT_Patient3_L_AnkleIso_Processed.TRC
DataRate	CameraRate	NumFrames	NumMarkers	Units	OrigDataRate	OrigDataStartFrame	OrigNumFrames
150.205761316872	150.205761316872	4	36	m	150.205761316872	366	       731
Frame#	Time	R.Heel			R.Midfoot.Superior			R.Midfoot.Lateral			R.Toe			L.Heel			L.Midfoot.Superior			L.Midfoot.Lateral			L.Toe			R.Shank.Superior			R.Shank.Inferior			R.Shank.Lateral			R.Shank.Posterior			L.Shank.Superior			L.Shank.Inferior			L.Shank.Posterior			L.Shank.Lateral			R.Patella			L.Patella			R.Thigh.Superior			R.Thigh.Lateral			R.Thigh.Inferior			L.Thigh.Superior			L.Thigh.Inferior			L.Thigh.Lateral			L.Asis			R.Asis			R.Shoulder			L.Shoulder			C7			J.Notch			Sternum			Thoracic			L.Elbow			L.Wrist			R.Elbow			R.Wrist			
		X1	Y1	Z1	X2	Y2	Z2	X3	Y3	Z3	X4	Y4	Z4	X5	Y5	Z5	X6	Y6	Z6	X7	Y7	Z7	X8	Y8	Z8	X9	Y9	Z9	X10	Y10	Z10	X11	Y11	Z11	X12	Y12	Z12	X13	Y13	Z13	X14	Y14	Z14	X15	Y15	Z15	X16	Y16	Z16	X17	Y17	Z17	X18	Y18	Z18	X19	Y19	Z19	X20	Y20	Z20	X21	Y21	Z21	X22	Y22	Z22	X23	Y23	Z23	X24	Y24	Z24	X25	Y25	Z25	X26	Y26	Z26	X27	Y27	Z27	X28	Y28	Z28	X29	Y29	Z29	X30	Y30	Z30	X31	Y31	Z31	X32	Y32	Z32	X33	Y33	Z33	X34	Y34	Z34	X35	Y35	Z35	X36	Y36	Z36	

366	2.430000000000	0.416307968436	0.049473751431	0.096302038767	0.571930307368	0.098791681434	0.167467344872	0.469562422933	0.037887521866	0.175877406780	0.677610561362	0.055089992881	0.217962981823	0.745772243722	0.110261949442	-0.047934234692	0.920370168467	0.157447864236	-0.057982242021	0.833822976666	0.078503634169	-0.079783741023	1.033213170906	0.121490792377	-0.019048155827	0.528070020983	0.359655474611	0.181175098810	0.519625000121	0.239954727712	0.172750397360	0.439792997616	0.293855058038	0.209932525755	0.393637776124	0.359481168623	0.141135068740	0.759340340800	0.431383079947	-0.083386789072	0.799142437351	0.308018235871	-0.078426144631	0.637270034168	0.357322450698	-0.059333879937	0.719303942721	0.325332332438	-0.119712555035	0.560100162269	0.466264332989	0.171180744465	0.736507784082	0.548467353939	-0.075059607809	0.616928527712	0.777997544392	0.192453614924	0.526317469673	0.710522461498	0.241068249049	0.604635868140	0.617452927885	0.165588383423	0.648247315631	0.825456516352	-0.084630358790	0.704870843358	0.686884844202	-0.063926594518	0.581565766346	0.731247756968	-0.135961926710	0.597706804224	0.952080743894	-0.060089215926	0.616132496502	0.938191737971	0.176994334786	0.537270513084	1.461300354862	0.208372646948	0.573492724992	1.435616272436	-0.107797000494	0.519974598932	1.483387463458	0.061950819999	0.623858716983	1.371236327639	0.060847445381	0.664783986146	1.192496811148	0.055981565877	0.413770205050	1.332800585058	0.058608057558	0.528171755045	1.177792163384	-0.295078971462	0.613509472854	0.987838502181	-0.433375660520	0.500508944192	1.184831849592	0.405929006810	0.660360322966	0.988422039044	0.415977495819	
367	2.436657534247	0.416307396426	0.049474178418	0.096302604315	0.571929410652	0.098791065073	0.167466237908	0.469562020065	0.037887654159	0.175877439550	0.677610848729	0.055090045296	0.217963167099	0.745881883926	0.109973337830	-0.047881371652	0.920280795218	0.157715272240	-0.058313844841	0.833959608561	0.078472967079	-0.079826953188	1.033350544240	0.122204489193	-0.019588137547	0.528081175181	0.359653268601	0.181182298462	0.519632894397	0.239953016321	0.172757074538	0.439806574072	0.293850967935	0.209949231950	0.393643966667	0.359480999423	0.141158627627	0.759285771321	0.431369327576	-0.083526391947	0.799092788159	0.308012158871	-0.078540671393	0.637218058270	0.357319556751	-0.059420336696	0.719237895481	0.325332530936	-0.119815692806	0.560111332360	0.466262430774	0.171190279442	0.736463441088	0.548465823659	-0.075139778389	0.616941544845	0.777997162659	0.192456917419	0.526341522587	0.710519385282	0.241091373519	0.604646077025	0.617452728972	0.165589754840	0.648190108559	0.825450201711	-0.084649606305	0.704817382017	0.686884620932	-0.063985806071	0.581489302929	0.731245300209	-0.135971254760	0.597665127263	0.952076052801	-0.060079889085	0.616139761714	0.938190581616	0.177000672195	0.537284334088	1.461296471305	0.208384044835	0.573464421451	1.435601868100	-0.107783765753	0.519972438894	1.483383692010	0.061969550040	0.623852173478	1.371223740139	0.060847580538	0.664749950867	1.192471668313	0.055978743708	0.413759728661	1.332804422049	0.058643282288	0.528146573954	1.177775400312	-0.295062447499	0.613505499424	0.987837874401	-0.433371580460	0.500519690939	1.184839112467	0.405955608815	0.660362012092	0.988421631606	0.415983362382	
368	2.443315068493	0.416306930101	0.049474526896	0.096303156586	0.571928739930	0.098790401562	0.167465327740	0.469561645999	0.037887863543	0.175877474712	0.677611234957	0.055090216052	0.217963373433	0.745966440807	0.109705349742	-0.047841289865	0.920180326017	0.157950262259	-0.058638136642	0.834066218411	0.078438169526	-0.079879776033	1.033458405537	0.122847376268	-0.020110713173	0.528092354515	0.359651043515	0.181190641704	0.519640974567	0.239951192203	0.172764564965	0.439820176410	0.293846644266	0.209966457757	0.393650289084	0.359480799482	0.141182664116	0.759232108841	0.431352459591	-0.083664755002	0.799039041518	0.308001624395	-0.078655250594	0.637163300689	0.357317588185	-0.059512496823	0.719170810897	0.325332928582	-0.119922440493	0.560122615073	0.466260536380	0.171201695330	0.736422771697	0.548463339261	-0.075218177722	0.616953616562	0.777997085043	0.192464122601	0.526364340865	0.710516275956	0.241116630827	0.604656302020	0.617452827352	0.165594566792	0.648135078138	0.825444240536	-0.084665062492	0.704768530329	0.686884776851	-0.064039606868	0.581416914659	0.731243748687	-0.135979236471	0.597625250427	0.952071010017	-0.060068320671	0.616145670363	0.938189739261	0.177009694305	0.537297425140	1.461292337527	0.208394969724	0.573436243900	1.435587661354	-0.107772030432	0.519970062753	1.483379741657	0.061987382109	0.623845383569	1.371210832609	0.060847731849	0.664715924921	1.192446637302	0.055976387724	0.413749148123	1.332808112050	0.058677755342	0.528120305086	1.177759045794	-0.295047536088	0.613501536536	0.987837377351	-0.433368061175	0.500528271815	1.184845206307	0.405980765866	0.660363236482	0.988421236918	0.415988885528	
369	2.449972602740	0.416306561827	0.049474782332	0.096303684274	0.571928295862	0.098789705888	0.167464611525	0.469561298591	0.037888137642	0.175877515188	0.677611707396	0.055090505667	0.217963593850	0.746025299500	0.109456589775	-0.047812780406	0.920068238645	0.158153126592	-0.058956088942	0.834142365953	0.078398354709	-0.079942276834	1.033537683407	0.123420711874	-0.020618428185	0.528103445471	0.359648818158	0.181200128959	0.519649153351	0.239949262008	0.172772831920	0.439833668133	0.293842113606	0.209984119162	0.393656688940	0.359480572896	0.141207081664	0.759179012532	0.431332394421	-0.083801234048	0.798980557395	0.307986404652	-0.078769797659	0.637105248750	0.357316550363	-0.059610007271	0.719102005562	0.325333307950	-0.120032500377	0.560133883862	0.466258657428	0.171214964703	0.736385471197	0.548459615190	-0.075294750377	0.616964691748	0.777997273938	0.192475372191	0.526385769414	0.710513134352	0.241144010542	0.604666446505	0.617453220850	0.165602943175	0.648082341289	0.825438490560	-0.084676379266	0.704724314084	0.686885088345	-0.064087564245	0.581348777929	0.731243109274	-0.135985832405	0.597587469908	0.952065537912	-0.060054393920	0.616150248180	0.938189150691	0.177021499973	0.537309576314	1.461287924557	0.208405438948	0.573408115377	1.435573670318	-0.107761909811	0.519967379308	1.483375616487	0.062004195100	0.623838267211	1.371197649917	0.060847892757	0.664681964708	1.192421793955	0.055974610703	0.413738463408	1.332811536495	0.058711338094	0.528092979579	1.177743102495	-0.295034279752	0.613497591196	0.987837006377	-0.433365120770	0.500534596075	1.184850044520	0.406004414838	0.660364000564	0.988420875874	0.415993965156	
